<?xml version="1.0" encoding="UTF-8" standalone="no"?>
<!-- Created with Inkscape (http://www.inkscape.org/) -->

<svg
   xmlns:dc="http://purl.org/dc/elements/1.1/"
   xmlns:cc="http://creativecommons.org/ns#"
   xmlns:rdf="http://www.w3.org/1999/02/22-rdf-syntax-ns#"
   xmlns:svg="http://www.w3.org/2000/svg"
   xmlns="http://www.w3.org/2000/svg"
   xmlns:xlink="http://www.w3.org/1999/xlink"
   xmlns:sodipodi="http://sodipodi.sourceforge.net/DTD/sodipodi-0.dtd"
   xmlns:inkscape="http://www.inkscape.org/namespaces/inkscape"
   width="49.96685"
   height="49.96685"
   id="svg2"
   sodipodi:version="0.32"
   inkscape:version="0.47 r22583"
   version="1.0"
   sodipodi:docname="log-in.svg"
   inkscape:output_extension="org.inkscape.output.svg.inkscape"
   style="display:inline"
   inkscape:export-filename="../log-in.png"
   inkscape:export-xdpi="28.819107"
   inkscape:export-ydpi="28.819107">
  <defs
     id="defs4">
    <linearGradient
       id="StandardGradient-1"
       gradientTransform="matrix(0.9984539,0,0,0.9984539,-0.0459776,0.05767558)"
       x1="10.710332"
       y1="1.9963325"
       x2="10.710332"
       y2="18.974037"
       gradientUnits="userSpaceOnUse">
      <stop
         style="stop-color:#000000;stop-opacity:0.86274511;"
         offset="0"
         id="stop3277-4" />
      <stop
         style="stop-color:#000000;stop-opacity:0.47058824;"
         offset="1"
         id="stop3279-3" />
    </linearGradient>
    <linearGradient
       inkscape:collect="always"
       xlink:href="#StandardGradient-1"
       id="linearGradient2858"
       gradientUnits="userSpaceOnUse"
       gradientTransform="matrix(0,-1,-1,0,16.861161,17)"
       x1="14"
       y1="7.0000005"
       x2="1.9584055"
       y2="7.0000005" />
  </defs>
  <sodipodi:namedview
     id="base"
     pagecolor="#ffffff"
     bordercolor="#e7e7e7"
     borderopacity="1"
     inkscape:pageopacity="0.0"
     inkscape:pageshadow="2"
     inkscape:zoom="6.0840335"
     inkscape:cx="64.665167"
     inkscape:cy="12.428497"
     inkscape:document-units="px"
     inkscape:current-layer="layer1"
     showgrid="false"
     inkscape:showpageshadow="false"
     showguides="false"
     inkscape:guide-bbox="true"
     inkscape:window-width="1680"
     inkscape:window-height="971"
     inkscape:window-x="0"
     inkscape:window-y="25"
     inkscape:window-maximized="1">
    <sodipodi:guide
       orientation="1,0"
       position="59.80404,110.56475"
       id="guide2383" />
    <sodipodi:guide
       orientation="0,1"
       position="86.082186,126.56475"
       id="guide2385" />
    <sodipodi:guide
       orientation="1,0"
       position="187.80403,52.646862"
       id="guide2387" />
    <sodipodi:guide
       orientation="0,1"
       position="137.96033,-1.4352562"
       id="guide2389" />
    <sodipodi:guide
       orientation="0,1"
       position="120.66762,62.649511"
       id="guide2391" />
    <inkscape:grid
       type="xygrid"
       id="grid3672"
       visible="true"
       enabled="true"
       empspacing="8"
       snapvisiblegridlinesonly="true" />
  </sodipodi:namedview>
  <metadata
     id="metadata7">
    <rdf:RDF>
      <cc:Work
         rdf:about="">
        <dc:format>image/svg+xml</dc:format>
        <dc:type
           rdf:resource="http://purl.org/dc/dcmitype/StillImage" />
        <dc:title></dc:title>
      </cc:Work>
    </rdf:RDF>
  </metadata>
  <g
     inkscape:label="Icon"
     inkscape:groupmode="layer"
     id="layer1"
     style="display:inline"
     transform="translate(58.942879,34.402109)">
    <g
       id="g2852"
       transform="matrix(0,-3.1325967,3.1325967,0,-62.250717,19.906058)">
      <path
         inkscape:connector-curvature="0"
         id="path3843"
         d="m 8.861161,2.0624999 c -3.8216611,0 -6.9375003,3.1158395 -6.9375003,6.9375 0,3.8216611 3.1158392,6.9375001 6.9375003,6.9375001 3.013017,0 5.577444,-1.925868 6.53125,-4.625 a 0.94205614,0.94205614 0 0 0 0.0625,-0.40625 c 0.735631,-0.05573 1.34375,-0.658976 1.34375,-1.4062501 l 0,-1 c 0,-0.7472746 -0.608119,-1.3505163 -1.34375,-1.40625 a 0.94205614,0.94205614 0 0 0 -0.0625,-0.40625 c -0.953806,-2.6991333 -3.518234,-4.625 -6.53125,-4.625 z m 0,0.9375 c 2.61165,0 4.832611,1.6692211 5.65625,4 l -2.21875,0 c -0.692339,-1.193787 -1.959054,-2 -3.4375,-2 -2.2080006,0 -4.0000003,1.792 -4.0000003,4 C 4.8611607,11.208 6.6531604,13 8.861161,13 c 1.478446,0 2.745161,-0.806213 3.4375,-2 l 2.21875,0 c -0.823639,2.330778 -3.0446,4 -5.65625,4 -3.3120006,0 -6.0000003,-2.688 -6.0000003,-6.0000001 0,-3.312 2.6879997,-6 6.0000003,-6 z m 0,2.9375 c 0.925032,0 1.663756,0.4774035 2.21875,1.125 l -0.71875,0 c -0.782554,0 -1.4375,0.6549463 -1.4375,1.4375 l 0,1 c 0,0.7825541 0.654946,1.4375001 1.4375,1.4375001 l 0.71875,0 c -0.554994,0.647596 -1.293718,1.125 -2.21875,1.125 -1.6983403,0 -3.0625003,-1.36416 -3.0625003,-3.0625001 0,-1.6983395 1.36416,-3.0625 3.0625003,-3.0625 z m 1.5,2.0625 5,0 c 0.277,0 0.5,0.223 0.5,0.5 l 0,1 c 0,0.277 -0.223,0.5 -0.5,0.5 l -5,0 c -0.277,0 -0.5,-0.223 -0.5,-0.5 l 0,-1 c 0,-0.277 0.223,-0.5 0.5,-0.5 z"
         style="opacity:0.15;fill:#ffffff;fill-opacity:1;fill-rule:nonzero;stroke:none" />
      <path
         inkscape:transform-center-x="-0.5"
         inkscape:connector-curvature="0"
         id="path2401"
         d="m 15.861161,9.4999997 c 0,0.277 -0.223,0.5 -0.5,0.5 l -5,0 c -0.277,0 -0.5,-0.223 -0.5,-0.5 l 0,-1 c 0,-0.2769999 0.223,-0.5 0.5,-0.5 l 5,0 c 0.277,0 0.5,0.2230001 0.5,0.5 l 0,1 z M 14.517411,11 c -0.823639,2.330778 -3.0446,4 -5.65625,4 -3.3120003,0 -6.0000003,-2.688 -6.0000003,-6.0000003 0,-3.312 2.688,-6 6.0000003,-6 2.61165,0 4.832611,1.6692211 5.65625,4 l -2.21875,0 c -0.692339,-1.193787 -1.959054,-1.9999999 -3.4375,-1.9999999 -2.2080003,0 -4.0000003,1.7919999 -4.0000003,3.9999999 C 4.8611607,11.208 6.6531607,13 8.861161,13 c 1.478446,0 2.745161,-0.806213 3.4375,-2 l 2.21875,0 z"
         style="fill:url(#linearGradient2858);fill-opacity:1;fill-rule:nonzero;stroke:none" />
      <path
         inkscape:connector-curvature="0"
         id="path3607"
         d="m 8.861161,2.9999999 c -3.3120006,0 -6.0000003,2.6879999 -6.0000003,6 0,0.124406 0.023774,0.252464 0.03125,0.375 0.3074414,-3.0243165 2.8637497,-5.375 5.9687503,-5.375 2.219275,0 4.150126,1.2076461 5.1875,3 l 0.46875,0 c -0.823639,-2.3307785 -3.0446,-4 -5.65625,-4 z m 1.5,5 c -0.277,0 -0.5,0.223 -0.5,0.5 l 0,1 c 0,-0.277 0.223,-0.5 0.5,-0.5 l 5,0 c 0.277,0 0.5,0.223 0.5,0.5 l 0,-1 c 0,-0.277 -0.223,-0.5 -0.5,-0.5 l -0.84375,0 -2.21875,0 -1.9375,0 z m -5.4375003,1.5 c -0.020625,0.16447 -0.0625,0.329968 -0.0625,0.5 C 4.8611607,12.208 6.6531604,14 8.861161,14 c 1.478446,0 2.745161,-0.806213 3.4375,-2 l 1.75,0 c 0.183411,-0.316894 0.345006,-0.649823 0.46875,-1 l -2.21875,0 c -0.692339,1.193787 -1.959054,2 -3.4375,2 C 6.8231925,13 5.1708698,11.4713 4.9236607,9.4999999 z"
         style="opacity:0.5;fill:#000000;fill-opacity:1;fill-rule:nonzero;stroke:none" />
      <path
         inkscape:connector-curvature="0"
         id="path3660"
         d="m 8.861161,4.9999999 c -2.2080006,0 -4.0000003,1.792 -4.0000003,4 0,0.170032 0.041875,0.33553 0.0625,0.5 0.2472091,-1.9713002 1.8995318,-3.5 3.9375003,-3.5 1.478446,0 2.745161,0.806213 3.4375,2 l 2.21875,0 c -0.123744,-0.3501771 -0.285339,-0.6831057 -0.46875,-1 l -1.75,0 c -0.692339,-1.193787 -1.959054,-2 -3.4375,-2 z m 1,4.5 0,1.0000001 c 0,0.277 0.223,0.5 0.5,0.5 l 1.9375,0 2.21875,0 0.84375,0 c 0.277,0 0.5,-0.223 0.5,-0.5 l 0,-1.0000001 c 0,0.277 -0.223,0.5 -0.5,0.5 l -5,0 c -0.277,0 -0.5,-0.223 -0.5,-0.5 z m -6.9687503,0.125 c -0.00748,0.122536 -0.03125,0.250594 -0.03125,0.375 C 2.8611607,13.312 5.5491604,16 8.861161,16 c 2.61165,0 4.832611,-1.669222 5.65625,-4 l -0.46875,0 c -1.037374,1.792354 -2.968225,3 -5.1875,3 C 5.7561604,15 3.1998521,12.649316 2.8924107,9.6249999 z"
         style="opacity:0.3;fill:#ffffff;fill-opacity:1;fill-rule:nonzero;stroke:none" />
    </g>
  </g>
</svg>
