<?xml version="1.0" encoding="UTF-8" standalone="no"?>
<!-- Created with Inkscape (http://www.inkscape.org/) -->

<svg
   xmlns:dc="http://purl.org/dc/elements/1.1/"
   xmlns:cc="http://creativecommons.org/ns#"
   xmlns:rdf="http://www.w3.org/1999/02/22-rdf-syntax-ns#"
   xmlns:svg="http://www.w3.org/2000/svg"
   xmlns="http://www.w3.org/2000/svg"
   xmlns:xlink="http://www.w3.org/1999/xlink"
   xmlns:sodipodi="http://sodipodi.sourceforge.net/DTD/sodipodi-0.dtd"
   xmlns:inkscape="http://www.inkscape.org/namespaces/inkscape"
   width="16"
   height="16"
   id="svg2"
   sodipodi:version="0.32"
   inkscape:version="0.47 r22583"
   version="1.0"
   sodipodi:docname="search.svg"
   inkscape:output_extension="org.inkscape.output.svg.inkscape"
   inkscape:export-filename="../search.png"
   inkscape:export-xdpi="135"
   inkscape:export-ydpi="135">
  <defs
     id="defs4">
    <inkscape:perspective
       sodipodi:type="inkscape:persp3d"
       inkscape:vp_x="0 : 8 : 1"
       inkscape:vp_y="0 : 1000 : 0"
       inkscape:vp_z="16 : 8 : 1"
       inkscape:persp3d-origin="8 : 5.3333333 : 1"
       id="perspective18" />
    <linearGradient
       id="StandardGradient"
       gradientTransform="matrix(1.0022346,0,0,1.0022346,-2.7263793e-3,-3.4274669e-3)"
       x1="8.3667202"
       y1="1.0011907"
       x2="8.3667202"
       y2="14.839209"
       gradientUnits="userSpaceOnUse">
      <stop
         style="stop-color:#000000;stop-opacity:0.86274511;"
         offset="0"
         id="stop3292" />
      <stop
         style="stop-color:#000000;stop-opacity:0.47058824;"
         offset="1"
         id="stop3294" />
    </linearGradient>
    <inkscape:perspective
       id="perspective3648"
       inkscape:persp3d-origin="0.5 : 0.33333333 : 1"
       inkscape:vp_z="1 : 0.5 : 1"
       inkscape:vp_y="0 : 1000 : 0"
       inkscape:vp_x="0 : 0.5 : 1"
       sodipodi:type="inkscape:persp3d" />
    <linearGradient
       inkscape:collect="always"
       xlink:href="#StandardGradient"
       id="linearGradient3626"
       gradientUnits="userSpaceOnUse"
       gradientTransform="matrix(1.0022346,0,0,1.0022346,-20.002726,-0.00342747)"
       x1="8.3667202"
       y1="1.0011907"
       x2="8.3667202"
       y2="14.839209" />
    <clipPath
       clipPathUnits="userSpaceOnUse"
       id="clipPath3633">
      <path
         style="fill:#ff00ff;fill-opacity:1;stroke:none;display:inline"
         d="m -20,0 0,16 16,0 0,-16 -16,0 z m 6.03125,1 c 1.284136,0 2.583434,0.518602 3.5625,1.5 1.550185,1.5538805 1.873026,3.8766945 0.96875,5.75 -0.02944,0.062991 -0.492783,1.0685426 0,1.5625 0.298906,0.299618 0.66775,0.19791 1.125,0.65625 l 3.03125,3.0625 c 0.00872,0.01101 0.600029,0.617291 0,1.21875 -0.59772,0.599143 -1.18433,-0.0032 -1.1875,0 l -3.0625,-3.0625 c -0.45725,-0.45834 -0.357345,-0.856632 -0.65625,-1.15625 -0.402987,-0.403942 -1.16538,-0.182596 -1.46875,-0.0625 -0.04854,0.02556 -0.10707,0.0699 -0.15625,0.09375 -1.868852,0.90643 -4.168562,0.585131 -5.71875,-0.96875 -1.958131,-1.9627964 -1.95813,-5.1309536 0,-7.09375 0.979065,-0.9813981 2.278363,-1.5 3.5625,-1.5 z m 0,1.28125 c -2.076912,0 -3.749999,1.6993902 -3.75,3.78125 0,2.0818599 1.673088,3.7500002 3.75,3.75 2.076911,0 3.75,-1.6681403 3.75,-3.75 0,-2.0818599 -1.673089,-3.7812501 -3.75,-3.78125 z"
         id="path3635" />
    </clipPath>
    <linearGradient
       inkscape:collect="always"
       xlink:href="#StandardGradient"
       id="linearGradient5450"
       gradientUnits="userSpaceOnUse"
       gradientTransform="matrix(1.0022346,0,0,1.0022346,-0.00272638,-0.00342747)"
       x1="8.3667202"
       y1="1.0011907"
       x2="8.3667202"
       y2="14.839209" />
    <linearGradient
       inkscape:collect="always"
       xlink:href="#StandardGradient"
       id="linearGradient5454"
       gradientUnits="userSpaceOnUse"
       gradientTransform="matrix(1.0022346,0,0,1.0022346,-0.00272638,-0.00342747)"
       x1="8.3667202"
       y1="1.0011907"
       x2="8.3667202"
       y2="14.839209" />
  </defs>
  <sodipodi:namedview
     id="base"
     pagecolor="#ffffff"
     bordercolor="#9a9a9a"
     borderopacity="1"
     inkscape:pageopacity="0.0"
     inkscape:pageshadow="2"
     inkscape:zoom="35.052366"
     inkscape:cx="8.083772"
     inkscape:cy="8.6038204"
     inkscape:document-units="px"
     inkscape:current-layer="layer3"
     showgrid="true"
     inkscape:showpageshadow="false"
     showguides="true"
     inkscape:guide-bbox="true"
     inkscape:window-width="1680"
     inkscape:window-height="971"
     inkscape:window-x="0"
     inkscape:window-y="25"
     inkscape:window-maximized="1">
    <sodipodi:guide
       orientation="1,0"
       position="0,112"
       id="guide2383" />
    <sodipodi:guide
       orientation="0,1"
       position="26.278146,128"
       id="guide2385" />
    <sodipodi:guide
       orientation="1,0"
       position="128,54.082119"
       id="guide2387" />
    <sodipodi:guide
       orientation="0,1"
       position="78.156291,0"
       id="guide2389" />
    <inkscape:grid
       type="xygrid"
       id="grid3672"
       visible="true"
       enabled="true" />
  </sodipodi:namedview>
  <metadata
     id="metadata7">
    <rdf:RDF>
      <cc:Work
         rdf:about="">
        <dc:format>image/svg+xml</dc:format>
        <dc:type
           rdf:resource="http://purl.org/dc/dcmitype/StillImage" />
        <dc:title></dc:title>
      </cc:Work>
    </rdf:RDF>
  </metadata>
  <g
     inkscape:groupmode="layer"
     id="layer3"
     inkscape:label="Cross"
     style="display:inline">
    <g
       id="g2832">
      <path
         id="path5452"
         d="M 6.03125 -0.03125 C 4.4703493 -0.03125 2.9223418 0.60611516 1.75 1.78125 C -0.59875037 4.1355973 -0.598751 7.9581527 1.75 10.3125 C 3.6091625 12.176092 6.3723964 12.592557 8.625 11.5 C 8.7305718 11.448803 8.6880186 11.45749 8.71875 11.4375 C 8.7973802 11.406372 9.0080146 11.352079 9.125 11.34375 C 9.1336847 11.36712 9.09311 11.317143 9.125 11.40625 C 9.2079139 11.637929 9.3897877 12.045179 9.75 12.40625 L 12.8125 15.46875 A 1.0280671 1.0280671 0 0 0 12.84375 15.53125 C 12.84513 15.532472 12.869143 15.526107 12.875 15.53125 A 1.0280671 1.0280671 0 0 0 12.9375 15.59375 C 12.965072 15.616093 12.993424 15.629006 13.03125 15.65625 C 13.040126 15.661613 13.062519 15.65626 13.0625 15.65625 C 13.106869 15.687655 13.192233 15.716024 13.25 15.75 C 13.350309 15.808997 13.416168 15.887817 13.5625 15.9375 C 14.045917 16.101632 14.898244 16.009289 15.4375 15.46875 C 15.978734 14.926226 16.095218 14.080518 15.9375 13.59375 C 15.779782 13.106982 15.5356 12.911757 15.53125 12.90625 A 1.0280671 1.0280671 0 0 0 15.4375 12.8125 L 12.40625 9.75 C 12.053167 9.3960751 11.662008 9.2083413 11.4375 9.125 C 11.398211 9.1104153 11.400141 9.1028981 11.375 9.09375 C 11.376739 9.0790767 11.371425 9.0823126 11.375 9.0625 C 11.405385 8.8940925 11.497789 8.6922301 11.5 8.6875 C 12.590535 6.4283421 12.174045 3.6472328 10.3125 1.78125 C 9.140158 0.60611564 7.5921508 -0.03125 6.03125 -0.03125 z M 6.03125 1 C 7.3153867 1 8.614684 1.518602 9.59375 2.5 C 11.143935 4.0538805 11.466776 6.3766945 10.5625 8.25 C 10.53306 8.3129913 10.069717 9.3185426 10.5625 9.8125 C 10.861406 10.112118 11.23025 10.01041 11.6875 10.46875 L 14.71875 13.53125 C 14.727471 13.542264 15.318779 14.148541 14.71875 14.75 C 14.12103 15.349143 13.534421 14.746821 13.53125 14.75 L 10.46875 11.6875 C 10.0115 11.22916 10.111405 10.830868 9.8125 10.53125 C 9.4095128 10.127303 8.6471201 10.348654 8.34375 10.46875 C 8.2952101 10.494308 8.2366801 10.538647 8.1875 10.5625 C 6.3186476 11.46893 4.0189377 11.147631 2.46875 9.59375 C 0.51061921 7.6309536 0.51061968 4.4627964 2.46875 2.5 C 3.4478155 1.5186019 4.7471133 1 6.03125 1 z M 6.03125 2.28125 C 3.9543386 2.28125 2.2812506 3.9806402 2.28125 6.0625 C 2.28125 8.1443599 3.9543385 9.8125002 6.03125 9.8125 C 8.1081615 9.8125 9.7812497 8.1443597 9.78125 6.0625 C 9.78125 3.9806401 8.1081614 2.2812499 6.03125 2.28125 z M 6.03125 3.3125 C 7.5474209 3.3124999 8.75 4.5313898 8.75 6.0625 C 8.7499998 7.5936102 7.5577324 8.78125 6.03125 8.78125 C 4.5047676 8.7812501 3.3125 7.5936103 3.3125 6.0625 C 3.3125004 4.5313895 4.5150791 3.3125 6.03125 3.3125 z "
         style="fill:#ffffff;fill-opacity:1;stroke:none;display:inline;opacity:0.15" />
      <path
         sodipodi:nodetypes="csssssccsccsssccsssc"
         id="Symbol"
         d="M 6.0348128,1.0000004 C 4.7506761,1.0000004 3.4476634,1.5237441 2.4685979,2.5051422 C 0.51046758,4.4679386 0.51046711,7.6290551 2.4685979,9.5918515 C 4.0187856,11.145733 6.3244589,11.470353 8.1933113,10.563923 C 8.2424914,10.54007 8.3011843,10.495409 8.3497242,10.469851 C 8.6530943,10.349755 9.4170186,10.128619 9.8200058,10.532566 C 10.118911,10.832184 10.01969,11.234439 10.47694,11.692779 L 13.542634,14.73442 C 13.545805,14.731241 14.133652,15.333563 14.731372,14.73442 C 15.331401,14.132961 14.740093,13.553863 14.731372,13.542849 L 11.696961,10.469851 C 11.239711,10.011511 10.869694,10.110969 10.570788,9.8113514 C 10.078005,9.317394 10.541348,8.3064866 10.570788,8.2434953 C 11.475064,6.3701898 11.151213,4.0590227 9.6010277,2.5051422 C 8.6219617,1.5237442 7.3189495,1.0000004 6.0348128,1.0000004 z M 6.0348128,2.2856424 C 8.1117242,2.2856423 9.7887232,3.966637 9.7887232,6.0484969 C 9.7887229,8.1303566 8.1117243,9.8113514 6.0348128,9.8113514 C 3.9579013,9.8113516 2.2809024,8.1303568 2.2809024,6.0484969 C 2.280903,3.9666371 3.9579014,2.2856424 6.0348128,2.2856424 z"
         style="opacity:1;fill:url(#StandardGradient);fill-opacity:1;stroke:none;stroke-width:0.5;stroke-linecap:butt;stroke-linejoin:round;stroke-miterlimit:4;stroke-dasharray:none;stroke-opacity:1;display:inline" />
      <path
         sodipodi:nodetypes="csssssssscssscsssssssssssssccssssssssssssssssssssssssssssssccsccssssssccsssc"
         inkscape:label="#path3197"
         id="BevelShadow"
         d="M 6.03125,1 C 4.7471132,1 3.4478155,1.5186019 2.46875,2.5 C 2.3463669,2.6226748 2.2320853,2.7435485 2.125,2.875 C 2.1108226,2.8925502 2.1076433,2.9198034 2.09375,2.9375 C 1.9756568,3.0879208 1.8477272,3.2462338 1.75,3.40625 C 1.6522728,3.5662662 1.5776433,3.7383918 1.5,3.90625 C 1.4416459,4.029657 1.3914527,4.1544582 1.34375,4.28125 C 1.2647909,4.4979357 1.2043721,4.7136249 1.15625,4.9375 C 1.1179282,5.1157818 1.0815842,5.2878866 1.0625,5.46875 C 1.0243316,5.8304768 1.0254108,6.2009674 1.0625,6.5625 C 1.1727838,5.4516226 1.6163577,4.3544235 2.46875,3.5 C 3.4478155,2.5186019 4.7471132,2.0000001 6.03125,2 C 7.3153867,2 8.6146842,2.518602 9.59375,3.5 C 10.481766,4.3901324 10.948418,5.5250222 11.03125,6.6875 C 11.041572,6.6052093 11.025041,6.5201597 11.03125,6.4375 C 11.039044,6.3357964 11.060873,6.2269221 11.0625,6.125 C 11.063024,6.0835566 11.063002,6.0414519 11.0625,6 C 11.061293,5.8518603 11.045483,5.7100682 11.03125,5.5625 C 11.020981,5.4590165 11.01668,5.3528478 11,5.25 C 10.998415,5.2401354 11.001644,5.2286068 11,5.21875 C 10.959715,4.9772586 10.888184,4.7346449 10.8125,4.5 C 10.80953,4.4907916 10.815525,4.4779445 10.8125,4.46875 C 10.752439,4.2891545 10.674495,4.1107664 10.59375,3.9375 C 10.513005,3.7642336 10.413868,3.6025187 10.3125,3.4375 C 10.249857,3.3355221 10.1955,3.2232353 10.125,3.125 C 10.116652,3.1134239 10.102208,3.105271 10.09375,3.09375 C 9.9447031,2.8907318 9.7771173,2.6838044 9.59375,2.5 C 8.6146842,1.518602 7.3153867,1 6.03125,1 z M 2.3125,6.5625 C 2.2917452,6.7230476 2.28125,6.8961829 2.28125,7.0625 C 2.28125,9.1443599 3.9543384,10.8125 6.03125,10.8125 C 8.1081615,10.8125 9.7812499,9.1443597 9.78125,7.0625 C 9.78125,6.8961829 9.7707548,6.7230476 9.75,6.5625 C 9.7470886,6.5841197 9.7220246,6.6034998 9.71875,6.625 C 9.6952794,6.7791014 9.666458,6.915206 9.625,7.0625 C 9.619733,7.0815791 9.6305591,7.1060445 9.625,7.125 C 9.5861896,7.254712 9.5519547,7.3766383 9.5,7.5 C 9.4814969,7.5442982 9.457631,7.5815829 9.4375,7.625 C 9.4278101,7.6458265 9.4163067,7.6668844 9.40625,7.6875 C 9.3357915,7.8325848 9.2440764,7.9910953 9.15625,8.125 C 9.1512665,8.1325172 9.1612859,8.1487711 9.15625,8.15625 C 9.0600191,8.3007939 8.9584945,8.4329882 8.84375,8.5625 C 8.7957415,8.6164995 8.7385075,8.667621 8.6875,8.71875 C 8.4826278,8.9248274 8.247699,9.0955864 8,9.25 C 7.9093753,9.3060182 7.8142988,9.3579586 7.71875,9.40625 C 7.6542927,9.4389208 7.5977604,9.4710032 7.53125,9.5 C 7.518114,9.5057385 7.5132142,9.5256582 7.5,9.53125 C 7.3722176,9.5853784 7.2282255,9.6163276 7.09375,9.65625 C 7.0626454,9.6654804 7.0314387,9.6790595 7,9.6875 C 6.6885087,9.7711278 6.3694668,9.8125 6.03125,9.8125 C 5.6692278,9.8125 5.3309574,9.7516186 5,9.65625 C 4.828362,9.6067909 4.6605204,9.5410901 4.5,9.46875 C 4.1178301,9.2958526 3.7703049,9.0645509 3.46875,8.78125 C 3.4201792,8.7354146 3.3585717,8.704605 3.3125,8.65625 C 3.201215,8.5404337 3.0957366,8.410589 3,8.28125 C 2.9561508,8.2215585 2.9153388,8.1560713 2.875,8.09375 C 2.7722017,7.9358361 2.7032867,7.7671112 2.625,7.59375 C 2.5500786,7.4296018 2.4885657,7.2696466 2.4375,7.09375 C 2.3920354,6.9371464 2.3687884,6.7893957 2.34375,6.625 C 2.3402026,6.6019434 2.3156242,6.5857 2.3125,6.5625 z M 10.4375,9.625 C 10.33364,9.9806344 10.246375,10.495621 10.5625,10.8125 C 10.861406,11.112117 11.23025,11.01041 11.6875,11.46875 L 14.71875,14.53125 C 14.720581,14.533563 14.775713,14.577636 14.8125,14.625 C 14.845532,14.581981 14.883734,14.542386 14.90625,14.5 C 14.923314,14.46962 14.925378,14.43607 14.9375,14.40625 C 15.018496,14.202625 14.994569,14.02668 14.9375,13.875 C 14.922282,13.834552 14.893143,13.81573 14.875,13.78125 C 14.843835,13.725136 14.840174,13.660631 14.8125,13.625 C 14.76978,13.565668 14.720794,13.533831 14.71875,13.53125 L 11.6875,10.46875 C 11.573187,10.354165 11.47866,10.278561 11.375,10.21875 C 11.27145,10.15915 11.155865,10.128409 11.0625,10.09375 C 10.875476,10.02387 10.711953,9.9623088 10.5625,9.8125 C 10.507536,9.7574047 10.470603,9.6909252 10.4375,9.625 z"
         style="opacity:0.5;fill:#000000;fill-opacity:1;stroke:none;stroke-width:0.50000000000000000;stroke-linecap:butt;stroke-linejoin:round;stroke-miterlimit:4;stroke-dasharray:none;stroke-opacity:1;display:inline" />
      <path
         sodipodi:nodetypes="csccsccsccsccsccsccscscccsssssccsssccssssccsccsc"
         inkscape:label="#path3207"
         id="BevelHighlight"
         d="M 6.03125,2.28125 C 3.9543386,2.28125 2.2812506,3.9806404 2.28125,6.0625 C 2.28125,6.224921 2.2926917,6.3743168 2.3125,6.53125 C 2.5171121,5.0472341 3.5938141,3.8739561 5,3.46875 C 5.5488736,3.3216798 5.6687041,3.3167948 6,3.3125 C 6.3274272,3.3082553 6.5803274,3.3250491 7,3.4375 C 8.4389085,3.8238118 9.5426535,5.0235559 9.75,6.53125 C 9.7698083,6.3743168 9.78125,6.224921 9.78125,6.0625 C 9.78125,3.9806401 8.1081613,2.2812499 6.03125,2.28125 z M 10.125,3.125 C 10.280447,3.340566 10.414137,3.5490216 10.53125,3.78125 C 10.419416,3.5654553 10.282143,3.3346493 10.125,3.125 z M 10.5625,3.8125 C 10.671564,4.033252 10.73786,4.2685894 10.8125,4.5 C 10.740777,4.2624294 10.676397,4.0373901 10.5625,3.8125 z M 10.8125,4.5 C 10.888184,4.7346449 10.959715,4.9772586 11,5.21875 C 10.963978,4.9699438 10.882335,4.7313187 10.8125,4.5 z M 11.0625,6.28125 C 11.031562,6.9520052 10.860976,7.6316746 10.5625,8.25 C 10.53674,8.3051174 10.196463,9.0684817 10.4375,9.59375 C 10.493465,9.4090759 10.552432,9.2715418 10.5625,9.25 C 10.934734,8.4788762 11.0625,7.6185479 11.0625,6.78125 L 11.0625,6.28125 z M 1.03125,6.4375 C 1.030747,6.4810129 1.03125,6.5185346 1.03125,6.5625 C 1.03125,8.2492135 1.3630117,9.485377 2.46875,10.59375 C 4.0189377,12.147631 6.3186476,12.46893 8.1875,11.5625 C 8.2366797,11.538647 8.2952101,11.494308 8.34375,11.46875 C 8.6471205,11.348654 9.4095128,11.127303 9.8125,11.53125 C 10.111406,11.830868 10.0115,12.22916 10.46875,12.6875 L 13.53125,15.75 C 13.534421,15.746821 14.12103,16.349143 14.71875,15.75 C 15.168772,15.298906 14.954358,14.851961 14.8125,14.65625 C 14.787309,14.687624 14.750252,14.718423 14.71875,14.75 C 14.12103,15.349143 13.534421,14.746821 13.53125,14.75 L 10.46875,11.6875 C 10.0115,11.22916 10.111406,10.830868 9.8125,10.53125 C 9.4095128,10.127303 8.6471205,10.348654 8.34375,10.46875 C 8.2952101,10.494308 8.2366797,10.538647 8.1875,10.5625 C 6.3186476,11.46893 4.0189377,11.147632 2.46875,9.59375 C 1.5874296,8.7103297 1.1192365,7.587904 1.03125,6.4375 z M 2.34375,6.625 C 2.3687884,6.7893957 2.3920354,6.9371464 2.4375,7.09375 C 2.3925,6.9395781 2.3686749,6.7870027 2.34375,6.625 z M 9.71875,6.625 C 9.69642,6.7709867 9.6636245,6.9225868 9.625,7.0625 C 9.666458,6.915206 9.6952794,6.7791014 9.71875,6.625 z"
         style="opacity:0.3;fill:#ffffff;fill-opacity:1;stroke:none;stroke-width:0.50000000000000000;stroke-linecap:butt;stroke-linejoin:round;stroke-miterlimit:4;stroke-dasharray:none;stroke-opacity:1;display:inline" />
    </g>
  </g>
</svg>
