<?xml version="1.0" encoding="UTF-8" standalone="no"?>
<!-- Created with Inkscape (http://www.inkscape.org/) -->

<svg
   xmlns:dc="http://purl.org/dc/elements/1.1/"
   xmlns:cc="http://creativecommons.org/ns#"
   xmlns:rdf="http://www.w3.org/1999/02/22-rdf-syntax-ns#"
   xmlns:svg="http://www.w3.org/2000/svg"
   xmlns="http://www.w3.org/2000/svg"
   xmlns:xlink="http://www.w3.org/1999/xlink"
   xmlns:sodipodi="http://sodipodi.sourceforge.net/DTD/sodipodi-0.dtd"
   xmlns:inkscape="http://www.inkscape.org/namespaces/inkscape"
   width="96"
   height="96"
   id="svg2"
   sodipodi:version="0.32"
   inkscape:version="0.48.2 r9819"
   version="1.0"
   sodipodi:docname="star_enable.svg"
   inkscape:output_extension="org.inkscape.output.svg.inkscape"
   inkscape:export-filename="../star_enable.png"
   inkscape:export-xdpi="20.620001"
   inkscape:export-ydpi="20.620001"
   sodipodi:modified="true"
   style="display:inline">
  <sodipodi:namedview
     id="base"
     pagecolor="#ffffff"
     bordercolor="#666666"
     borderopacity="1.0"
     inkscape:pageopacity="0.0"
     inkscape:pageshadow="2"
     inkscape:zoom="3.3589776"
     inkscape:cx="-7.8239674"
     inkscape:cy="48.279852"
     inkscape:document-units="px"
     inkscape:current-layer="layer1"
     width="128px"
     height="128px"
     inkscape:showpageshadow="false"
     inkscape:window-width="1890"
     inkscape:window-height="1060"
     inkscape:window-x="1918"
     inkscape:window-y="-3"
     showguides="true"
     inkscape:guide-bbox="true"
     showgrid="true"
     inkscape:window-maximized="1">
    <sodipodi:guide
       id="guide2226"
       position="32.637397,117.99844"
       orientation="horizontal" />
    <inkscape:grid
       enabled="true"
       visible="true"
       id="grid3231"
       type="xygrid"
       empspacing="8"
       snapvisiblegridlinesonly="true" />
  </sodipodi:namedview>
  <defs
     id="defs4">
    <linearGradient
       id="linearGradient3651">
      <stop
         style="stop-color:#c30000;stop-opacity:1;"
         offset="0"
         id="stop3653" />
      <stop
         style="stop-color:#ff5353;stop-opacity:1;"
         offset="1"
         id="stop3655" />
    </linearGradient>
    <clipPath
       clipPathUnits="userSpaceOnUse"
       id="clipPath3688">
      <path
         style="fill:#ff00ff;fill-opacity:1;stroke:none;display:inline"
         d="M 3.4113583,5.2580561 5.4883859,18.339063 18.569393,16.262036 16.492365,3.1810285 3.4113583,5.2580561 z m 6.7107437,0.153619 2.163233,3.0663662 3.764593,-0.045316 -2.265566,3.0076027 1.212967,3.560141 L 11.434116,13.794646 8.4382447,16.041933 8.4887842,12.28117 5.4216097,10.120311 8.9965026,9.0002485 10.122102,5.4116751 z"
         id="path3690" />
    </clipPath>
    <filter
       inkscape:collect="always"
       id="filter3692"
       color-interpolation-filters="sRGB">
      <feGaussianBlur
         inkscape:collect="always"
         stdDeviation="0.31491913"
         id="feGaussianBlur3694" />
    </filter>
    <linearGradient
       inkscape:collect="always"
       xlink:href="#linearGradient3651"
       id="linearGradient2902"
       gradientUnits="userSpaceOnUse"
       x1="10.735273"
       y1="5.3143144"
       x2="12.340249"
       y2="15.422365" />
    <clipPath
       clipPathUnits="userSpaceOnUse"
       id="clipPath2921">
      <path
         style="opacity:0.3;color:#000000;fill:#ff00ff;fill-opacity:1;fill-rule:nonzero;stroke:none;stroke-width:1;marker:none;visibility:visible;display:inline;overflow:visible;enable-background:accumulate"
         d="M 2.7223567,4.7578745 4.988205,19.028064 19.258394,16.762216 16.992546,2.4920262 2.7223567,4.7578745 z m 7.3904543,0.655275 2.172524,3.0648911 3.754565,-0.048486 -2.24551,3.0139422 1.207584,3.556234 L 11.443407,13.79317 8.4328618,16.038025 8.4794936,12.282644 5.4115816,10.11714 9.0011477,8.9995102 10.112811,5.4131495 z"
         id="path2923" />
    </clipPath>
    <filter
       inkscape:collect="always"
       id="filter3709">
      <feGaussianBlur
         inkscape:collect="always"
         stdDeviation="0.15745957"
         id="feGaussianBlur3711" />
    </filter>
  </defs>
  <metadata
     id="metadata7">
    <rdf:RDF>
      <cc:Work
         rdf:about="">
        <dc:format>image/svg+xml</dc:format>
        <dc:type
           rdf:resource="http://purl.org/dc/dcmitype/StillImage" />
        <dc:title></dc:title>
      </cc:Work>
    </rdf:RDF>
  </metadata>
  <g
     style="display:inline"
     inkscape:label="Calque 1"
     id="layer1"
     inkscape:groupmode="layer"
     transform="translate(0,74)">
    <path
       transform="matrix(8.2736614,1.313708,-1.313708,8.2736614,-28.747519,-128.94134)"
       d="M 15,15 11.442463,13.793604 8.431842,16.040294 8.479853,12.284079 5.4127911,10.115073 9,9 l 1.115073,-3.5872089 2.169006,3.0670619 3.756215,-0.048011 -2.24669,3.0106211 z"
       inkscape:randomized="0"
       inkscape:rounded="0"
       inkscape:flatsided="false"
       sodipodi:arg2="1.4137167"
       sodipodi:arg1="0.78539816"
       sodipodi:r2="2.8284271"
       sodipodi:r1="5.6568542"
       sodipodi:cy="11"
       sodipodi:cx="11"
       sodipodi:sides="5"
       id="path2912"
       style="opacity:0.2;color:#000000;fill:none;stroke:#ffffff;stroke-width:0.47748029;stroke-miterlimit:4;stroke-dasharray:none;marker:none;visibility:visible;display:inline;overflow:visible;filter:url(#filter3709);enable-background:accumulate"
       sodipodi:type="star"
       clip-path="url(#clipPath2921)" />
    <path
       transform="matrix(8.2736614,1.313708,-1.313708,8.2736614,-28.747519,-128.94134)"
       d="M 15,15 11.442463,13.793604 8.431842,16.040294 8.479853,12.284079 5.4127911,10.115073 9,9 l 1.115073,-3.5872089 2.169006,3.0670619 3.756215,-0.048011 -2.24669,3.0106211 z"
       inkscape:randomized="0"
       inkscape:rounded="0"
       inkscape:flatsided="false"
       sodipodi:arg2="1.4137167"
       sodipodi:arg1="0.78539816"
       sodipodi:r2="2.8284271"
       sodipodi:r1="5.6568542"
       sodipodi:cy="11"
       sodipodi:cx="11"
       sodipodi:sides="5"
       id="path3679"
       style="opacity:0.3;color:#000000;fill:none;stroke:#ffffff;stroke-width:0.11937007;stroke-miterlimit:4;stroke-dasharray:none;marker:none;visibility:visible;display:inline;overflow:visible;filter:url(#filter3692);enable-background:accumulate"
       sodipodi:type="star"
       clip-path="url(#clipPath3688)" />
    <path
       sodipodi:type="star"
       style="color:#000000;fill:url(#linearGradient2902);fill-opacity:1;fill-rule:nonzero;stroke:none;stroke-width:1;marker:none;visibility:visible;display:inline;overflow:visible;enable-background:accumulate"
       id="path3649"
       sodipodi:sides="5"
       sodipodi:cx="11"
       sodipodi:cy="11"
       sodipodi:r1="5.6568542"
       sodipodi:r2="2.8284271"
       sodipodi:arg1="0.78539816"
       sodipodi:arg2="1.4137167"
       inkscape:flatsided="false"
       inkscape:rounded="0"
       inkscape:randomized="0"
       d="M 15,15 11.442463,13.793604 8.431842,16.040294 8.479853,12.284079 5.4127911,10.115073 9,9 l 1.115073,-3.5872089 2.169006,3.0670619 3.756215,-0.048011 -2.24669,3.0106211 z"
       transform="matrix(8.2736614,1.313708,-1.313708,8.2736614,-28.747519,-128.94134)" />
    <path
       style="opacity:0.50000000000000000;color:#000000;fill:#a30000;fill-opacity:1;fill-rule:nonzero;stroke:none;stroke-width:1;marker:none;visibility:visible;display:inline;overflow:visible;enable-background:accumulate"
       d="m 47.889962,-70.869493 -14.027163,28.211934 -31.0488871,4.570648 4.5706484,4.41304 26.4782387,-3.940214 14.027163,-28.211933 13.869553,28.211933 26.635848,3.940214 4.570648,-4.41304 -31.206496,-4.570648 -13.869553,-28.211934 z m -23.326068,58.945604 -4.570648,26.793456 0.945651,-0.472826 4.41304,-25.532587 -0.788043,-0.788043 z m 46.494527,0 -0.788043,0.788043 4.41304,25.532587 0.945651,0.472826 -4.570648,-26.793456 z"
       id="path3660"
       inkscape:connector-curvature="0" />
    <path
       style="opacity:0.3;color:#000000;fill:#ffffff;fill-opacity:1;fill-rule:nonzero;stroke:none;stroke-width:1;marker:none;visibility:visible;display:inline;overflow:visible;enable-background:accumulate"
       d="m 7.3845603,-33.673871 -4.5706484,0.630434 21.7499821,21.119548 0.788043,-4.255431 -17.9673767,-17.494551 z m 81.0108027,0 -18.124985,17.494551 0.788043,4.255431 21.90759,-21.119548 -4.570648,-0.630434 z M 47.732353,0.21197045 20.938897,14.396741 19.993246,19.913041 47.732353,5.2554445 75.629069,19.913041 74.683418,14.396741 47.732353,0.21197045 z"
       id="path3670"
       inkscape:connector-curvature="0" />
    <path
       style="opacity:0.3;color:#000000;fill:#5c5c5c;fill-opacity:1;fill-rule:nonzero;stroke:none;stroke-width:1;marker:none;visibility:visible;display:inline;overflow:visible;enable-background:accumulate"
       d="M 47.889962,-70.869493 33.862799,-42.657559 2.8139119,-38.086911 25.351937,-16.17932 19.993246,14.869567 47.732353,0.21197045 75.629069,14.869567 70.270378,-16.17932 92.966011,-38.086911 61.759515,-42.657559 47.889962,-70.869493 z m 0.157608,7.407603 10.874991,22.065199 a 3.1680398,3.1680398 0 0 0 2.364129,1.733694 l 24.744544,3.782606 -18.124985,17.494551 a 3.1680398,3.1680398 0 0 0 -0.630434,2.836954 L 71.531246,9.1956587 49.308439,-2.6249837 A 3.1680398,3.1680398 0 0 0 46.313876,-2.7825923 L 24.091068,9.0380501 28.3465,-15.706495 a 3.1680398,3.1680398 0 0 0 -0.945652,-2.836954 L 9.7486888,-35.565174 34.493234,-39.347779 a 3.1680398,3.1680398 0 0 0 0.788042,-0.472826 3.1680398,3.1680398 0 0 0 1.576086,-1.260869 L 48.04757,-63.46189 z"
       id="path3716"
       inkscape:connector-curvature="0" />
  </g>
</svg>
